{"accessors":[{"bufferView":2,"componentType":5126,"count":144,"max":[4,5.999999523162842,20],"min":[-4,-6.000000476837158,-6],"type":"VEC3"},{"bufferView":2,"byteOffset":1728,"componentType":5126,"count":144,"max":[1,1,1],"min":[-1,-1,-1],"type":"VEC3"},{"bufferView":1,"componentType":5126,"count":144,"max":[0.625,1],"min":[0,0.5],"type":"VEC2"},{"bufferView":0,"componentType":5125,"count":216,"type":"SCALAR"}],"asset":{"extras":{"author":"Vincent Yanez (https://sketchfab.com/vinceyanez)","license":"CC-BY-4.0 (http://creativecommons.org/licenses/by/4.0/)","source":"https://sketchfab.com/3d-models/minecraft-creeper-fd66182f07e5408eb04fa5a88ae16055","title":"Minecraft - Creeper"},"generator":"Sketchfab-12.68.0","version":"2.0"},"bufferViews":[{"buffer":0,"byteLength":864,"name":"floatBufferViews","target":34963},{"buffer":0,"byteLength":1152,"byteOffset":864,"byteStride":8,"name":"floatBufferViews","target":34962},{"buffer":0,"byteLength":3456,"byteOffset":2016,"byteStride":12,"name":"floatBufferViews","target":34962}],"buffers":[{"byteLength":5472,"uri":"data:application/octet-stream;base64,"}],"images":[{"uri":"data:application/octet-stream;base64,"}],"materials":[{"doubleSided":true,"name":"02_-_Default","pbrMetallicRoughness":{"baseColorTexture":{"index":0},"metallicFactor":0,"roughnessFactor":0.4}}],"meshes":[{"name":"Creeper_02 - Default_0","primitives":[{"attributes":{"NORMAL":1,"POSITION":0,"TEXCOORD_0":2},"indices":3,"material":0,"mode":4}]}],"nodes":[{"children":[1],"matrix":[1,0,0,0,0,2.220446049250313e-16,-1,0,0,1,2.220446049250313e-16,0,0,0,0,1],"name":"Sketchfab_model"},{"children":[2],"matrix":[1,0,0,0,0,0,1,0,0,-1,0,0,0,0,0,1],"name":"2399f1bb761e466dba4d49bf0f5f4756.fbx"},{"children":[3],"name":"RootNode"},{"children":[4],"matrix":[1,0,0,0,0,2.220446049250313e-16,-1,0,0,1,2.220446049250313e-16,0,0,0,-9.604275419405894e-8,1],"name":"Creeper"},{"children":[5],"matrix":[1,0,0,0,0,1,0,0,0,0,1,0,0,4.76837158203125e-7,-7,1],"name":"Object_4"},{"mesh":0,"name":"Creeper_02 - Default_0"}],"samplers":[{"magFilter":9728,"minFilter":9986,"wrapS":10497,"wrapT":10497}],"scene":0,"scenes":[{"name":"Sketchfab_Scene","nodes":[0]}],"textures":[{"sampler":0,"source":0}]}